<svg enable-background="new 0 0 1035.2 205.1" viewBox="0 0 1035.2 205.1" xmlns="http://www.w3.org/2000/svg"><g fill="#e82b24"><path d="m817.7 99.6v-20.6h5.4v20.6h8.5v5.5h-8.5v26c2.8-1.1 5.6-2.2 8.3-3.4v5.5c-6.8 3-14.1 5.5-21.9 7.6l-1.4-5.4c3.3-.7 6.5-1.5 9.6-2.4v-27.8h-9v-5.5h9zm61.9 10v4.9h-29.8c-.9 1.7-1.9 3.3-3.1 4.8h30.2c-.2 7.5-.5 13.5-1.2 18.2-.6 4.6-1.6 7.8-3 9.7-1.4 1.7-3.7 2.6-6.8 2.8h-5.9l-1.4-5.1c1.6.2 3.2.2 4.7.2 3.2 0 5.3-1.3 6.3-4 .9-2.7 1.6-8.4 2-17.2h-4.4c-5.3 13.1-14 21.8-26 26l-3-4.5c11.2-3.7 19.3-10.8 24.1-21.4h-6.7c-4.1 7-10.6 12.5-19.8 16.5l-3.3-3.9c8.3-3.3 14.2-7.4 17.8-12.6h-7.8c-2.2 2-4.7 3.8-7.5 5.5l-3.1-4.2c5.7-3 9.8-6.6 12.5-10.8h-11.4v-4.9zm-5.8-27.9v23.3h-35.9v-23.3zm-5.2 9.7v-5.1h-25.5v5.1zm0 4.1h-25.5v5.1h25.5z"/><path d="m896.3 99.9v-20.7h5.6v20.7h8.7v5.5h-8.7v25.7c3.5-1.2 6.9-2.6 10.3-4.1v5.5c-7.6 3.4-15.8 6.3-24.7 8.7l-1.4-5.6c3.4-.8 6.9-1.6 10.2-2.6v-27.5h-9.2v-5.5h9.2zm42.1-21v18.1l16.4-4.8c-.2 9.7-1.3 20-3.5 30.8l-5.1-1.6c1.5-6.9 2.6-14.2 3.3-22.1l-11 3.3v31h-5.4v-29.5l-10 3v32.5c0 2.7 1.2 4.1 3.7 4.1h20c1.7 0 2.9-.5 3.6-1.6.9-1.3 1.5-5.2 1.8-11.6l5.2 1.6c-.5 8-1.6 12.9-3.1 14.7-1.4 1.5-3.5 2.3-6.5 2.3h-22.8c-5 0-7.4-2.8-7.4-8.3v-32l-5.6 1.6v-5.5l5.6-1.6v-16.5h5.4v14.8l10-3v-19.7z"/><path d="m1023.3 98.5v5.2h-17.7c-2.2 1.6-4.4 2.9-6.5 4.1 3.1 3.4 5.5 7 7.3 11 6.6-2.5 12.9-6.6 18.9-12.1l3.9 3.8c-5.6 5.1-11.9 9.1-18.9 11.9 6.3 7.2 14.7 13.2 25 18l-2.9 5c-9.7-5-17.5-11-23.4-18 .3 2 .5 4.1.5 6.2 0 6.1-.9 10.3-2.6 12.6-1.9 2.7-6.2 4-12.9 4h-2.6l-1.9-4.9h3.7c4.7-.1 7.6-.8 8.7-2 1.4-1.6 2.1-4.8 2.1-9.7-.1-1.4-.2-2.8-.3-4.1-8.7 6.9-20.1 12.4-34.3 16.7l-2.8-4.8c15.5-4.5 27.5-10.2 36-17.2-.6-2.1-1.3-4.1-2.3-5.9-7.5 5.8-17.5 10.4-29.9 14l-2.8-4.8c13-3.4 23.2-7.8 30.4-13.3-.9-1.4-2-2.8-3.1-4.1-.6.3-1.2.5-1.8.9-5.4 2.5-12.5 5-21.2 7.5l-2.9-4.5c7.5-1.6 14.3-3.7 20.2-6.3 2.8-1.2 5.5-2.5 8.1-3.9h-20.7v-5.2h46.7zm-19.8-12.8h29.3v13.6h-5.5v-8.3h-54.7v8.3h-5.6v-13.6h30.9c-.9-2.3-1.8-4.5-2.8-6.4l5.8-.9c.9 2.2 1.8 4.6 2.6 7.3z"/><path d="m161.1 137.4 9.8-11.7c5.3 4.7 12.3 7.9 18.5 7.9 7.1 0 10.6-2.8 10.6-7.3 0-4.7-4.3-6.3-10.8-9l-9.8-4.2c-7.8-3.2-15.2-9.6-15.2-20.5 0-12.5 11.1-22.4 26.8-22.4 8.7 0 17.7 3.4 24.2 9.9l-8.6 10.7c-5-3.8-9.7-5.9-15.6-5.9s-9.6 2.4-9.6 6.7c0 4.6 4.9 6.3 11.5 8.9l9.6 3.9c9.2 3.7 14.9 9.8 14.9 20.4 0 12.5-10.4 23.3-28.3 23.3-10 .2-20.4-3.5-28-10.7z"/><path d="m227.3 89.7h13.8l1.2 5.6h.4c4.5-4 10.3-7 16.3-7 13.9 0 22.3 11.5 22.3 29.1 0 19.6-11.7 30.9-24.1 30.9-4.9 0-9.6-2.2-13.6-6l.6 9v16.8h-17v-78.4zm36.8 27.9c0-10.3-3.2-15.4-9.9-15.4-3.5 0-6.5 1.6-9.8 5.1v23.5c3.1 2.7 6.3 3.6 9.1 3.6 5.8 0 10.6-5 10.6-16.8z"/><path d="m288.2 131.1c0-12.1 9.6-18.6 32.2-21-.3-5-2.8-8.3-9-8.3-4.8 0-9.6 2-15.1 5.2l-6-11.1c7.3-4.4 15.4-7.5 24.4-7.5 14.6 0 22.7 8.4 22.7 25.9v32.7h-13.8l-1.2-5.9h-.4c-4.8 4.2-10.2 7.2-16.6 7.2-10.5 0-17.2-7.6-17.2-17.2zm32.3-.8v-10c-12.1 1.6-16 5.1-16 9.4 0 3.7 2.5 5.5 6.6 5.5 3.8 0 6.4-1.9 9.4-4.9z"/><path d="m347.1 118.3c0-19 14-30 29.8-30 7 0 12.5 2.5 16.7 6.2l-8 10.9c-2.7-2.3-5-3.4-7.8-3.4-8.2 0-13.4 6.4-13.4 16.3s5.5 16.3 12.8 16.3c3.8 0 7.4-1.9 10.3-4.2l6.6 11.1c-5.6 4.9-12.7 6.8-18.9 6.8-15.8 0-28.1-11-28.1-30z"/><path d="m396.5 118.3c0-18.6 13.2-30 27-30 16.3 0 24.4 11.8 24.4 27.5 0 3.1-.4 6.1-.7 7.5h-34.2c1.5 8.3 7.2 12.1 14.8 12.1 4.3 0 8.2-1.3 12.4-3.7l5.6 10.2c-5.9 4.1-13.5 6.4-20.3 6.4-16.4 0-29-11-29-30zm36.9-6.2c0-6.3-2.7-10.8-9.5-10.8-5.4 0-10 3.6-11.1 10.8z"/><path d="m504.9 146.9h5.6l-26.8-76h-5.3l-26.8 76h5.4l9-26.1h30.1zm-37.3-30.5 4.9-14.2c3.1-9 5.8-17 8.4-26.3h.5c2.7 9.3 5.4 17.2 8.4 26.3l4.8 14.2z"/><path d="m516.3 119.3c0-17.9 11.3-29.2 24.6-29.2 6.6 0 11.2 2.5 16.7 6.8l-.3-10.2v-22.7h5.1v83h-4.4l-.6-7.2h-.3c-4.5 4.5-10.7 8.6-18.1 8.6-13.7-.1-22.7-10.4-22.7-29.1zm40.9 15.4v-32.8c-5.8-5.2-10.7-7.1-16.1-7.1-11 0-19.5 10.7-19.5 24.6 0 14.7 6.6 24.5 18.3 24.5 6.1-.1 11.5-3.3 17.3-9.2z"/><path d="m573.1 91.5h5.5l12.5 34.7c1.8 5.4 3.8 10.9 5.6 15.9h.5c1.8-5 3.8-10.6 5.6-15.9l12.5-34.7h5.2l-20.5 55.4h-6z"/><path d="m629.2 73.6c0-2.9 2.1-4.5 4.6-4.5s4.6 1.7 4.6 4.5c0 2.7-2.1 4.5-4.6 4.5-2.5.1-4.6-1.8-4.6-4.5zm2 17.9h5.1v55.4h-5.1z"/><path d="m649.4 140.7 3-3.7c4.7 3.9 9.7 7 17.6 7 8.7 0 13.2-5.1 13.2-10.9 0-6.9-7.2-10-13.6-12.3-8.3-3-17.6-6.4-17.6-15.8 0-8 6.3-14.7 17.9-14.7 5.9 0 11.8 2.5 15.8 5.7l-2.7 3.7c-3.7-2.8-7.7-5.1-13.2-5.1-8.6 0-12.5 5-12.5 10.1 0 6.3 6.5 8.7 13.1 11.2 8.6 3.3 18.1 6.1 18.1 16.9 0 8.3-6.7 15.6-18.7 15.6-8.4-.1-15.5-3.5-20.4-7.7z"/><path d="m697.1 119.3c0-18.5 11.6-29.2 24.9-29.2s24.9 10.7 24.9 29.2c0 18.3-11.6 29-24.9 29-13.4 0-24.9-10.6-24.9-29zm44.3 0c0-14.6-8.3-24.7-19.5-24.7s-19.5 10.1-19.5 24.7 8.3 24.5 19.5 24.5 19.5-9.9 19.5-24.5z"/><path d="m762.1 91.5h4.3l.5 10.3h.3c3.8-6.8 9.2-11.7 15.8-11.7 2 0 3.7.3 5.5 1.2l-1.2 4.6c-1.9-.7-2.9-.9-5-.9-5 0-10.9 3.8-15.1 14.3v37.7h-5.1z"/><path d="m64.1 178.3c-2.8 0-5.5-1.2-7.3-3.2l-2-2c-21.8-21.5-44.7-44.9-49.2-55.9-3.7-8.1-5.6-16.9-5.6-26.1 0-35.3 28.7-64.1 64.1-64.1 16.8 0 32.9 7.2 45.4 20.1 11.9 12.4 18.7 28.4 18.7 43.9 0 3.5-.5 15.7-6.9 26.5-1.9 3.2-6.1 4.3-9.4 2.4-3.2-1.9-4.3-6.1-2.4-9.4 4.9-8.2 5-18.4 5-19.6 0-28.4-27.1-50.4-50.4-50.4-27.8 0-50.4 22.6-50.4 50.4 0 7.2 1.5 14.2 4.4 20.5l.1.3c2.6 6.5 18 23.7 45.9 51.2 7.3-7.4 19.7-20.6 19.9-20.7l.2-.2c4.8-4.8 6.5-9.8 4.7-14.1-1.7-4-6-6.8-10.6-6.8h-14.4c-17.8 0-32.2-14.5-32.2-32.2s14.5-32.3 32.2-32.3 32.2 14.5 32.2 32.3c0 3.8-3.1 6.8-6.8 6.8s-6.8-3.1-6.8-6.8c0-10.3-8.3-18.6-18.6-18.6s-18.6 8.3-18.6 18.6 8.3 18.6 18.6 18.6h14.3c10.1 0 19.4 6.1 23.2 15.2 4 9.5 1.2 20.1-7.6 28.9-1.3 1.4-15.7 16.7-22.4 23.3-1.9 2.2-4.5 3.4-7.3 3.4z"/></g></svg>